<mxfile host="app.diagrams.net" modified="2023-06-24T05:26:07.918Z" agent="Mozilla/5.0 (X11; Linux x86_64; rv:109.0) Gecko/20100101 Firefox/114.0" etag="j6_iCJmQALL5XNJEzhtl" version="21.5.0" type="device">
  <diagram name="Page-1" id="Page-1">
    <mxGraphModel dx="1434" dy="942" grid="1" gridSize="10" guides="1" tooltips="1" connect="1" arrows="1" fold="1" page="1" pageScale="1" pageWidth="850" pageHeight="1100" math="0" shadow="0">
      <root>
        <mxCell id="0" />
        <mxCell id="1" value="Connector" parent="0" />
        <mxCell id="b6oYJSDJwjR9OZKanJwb-46" value="" style="rounded=1;whiteSpace=wrap;html=1;hachureGap=4;pointerEvents=0;strokeWidth=2;" parent="1" vertex="1">
          <mxGeometry x="470" y="788" width="830" height="251" as="geometry" />
        </mxCell>
        <mxCell id="b6oYJSDJwjR9OZKanJwb-45" value="" style="rounded=1;whiteSpace=wrap;html=1;hachureGap=4;pointerEvents=0;strokeWidth=2;" parent="1" vertex="1">
          <mxGeometry x="470" y="499" width="830" height="251" as="geometry" />
        </mxCell>
        <mxCell id="5" value="" style="verticalAlign=middle;align=center;vsdxID=5;shape=stencil(nZBLDoAgDERP0z3SIyjew0SURgSD+Lu9kMZoXLhwN9O+tukAlrNpJg1SzDH4QW/URgNYgZTkjA4UkwJUgGXng+6DX1zLfmoymdXo17xh5zmRJ6Q42BWCfc2oJfdAr+Yv+AP9Cb7OJ3H/2JG1HNGz/84klThPVCc=);strokeWidth=2;labelBackgroundColor=none;rounded=0;html=1;whiteSpace=wrap;" parent="1" vertex="1">
          <mxGeometry x="500" y="828" width="560" height="172" as="geometry" />
        </mxCell>
        <mxCell id="6" style="vsdxID=6;shape=stencil(nZBLDoAgDERP0z3SIyjew0SURgSD+Lu9kMZoXLhwN9O+tukAlrNpJg1SzDH4QW/URgNYgZTkjA4UkwJUgGXng+6DX1zLfmoymdXo17xh5zmRJ6Q42BWCfc2oJfdAr+Yv+AP9Cb7OJ3H/2JG1HNGz/84klThPVCc=);strokeWidth=2;labelBackgroundColor=none;rounded=0;html=1;whiteSpace=wrap;" parent="1" vertex="1">
          <mxGeometry x="510" y="528" width="550" height="171" as="geometry" />
        </mxCell>
        <mxCell id="8" style="vsdxID=9;fillColor=#dae8fc;shape=stencil(nZBLDoAgDERP0z3SIyjew0SURgSD+Lu9kMZoXLhwN9O+tukAlrNpJg1SzDH4QW/URgNYgZTkjA4UkwJUgGXng+6DX1zLfmoymdXo17xh5zmRJ6Q42BWCfc2oJfdAr+Yv+AP9Cb7OJ3H/2JG1HNGz/84klThPVCc=);strokeColor=#6c8ebf;strokeWidth=3;labelBackgroundColor=none;rounded=0;html=1;whiteSpace=wrap;" parent="1" vertex="1">
          <mxGeometry x="523" y="850" width="172" height="70" as="geometry" />
        </mxCell>
        <mxCell id="11" style="vsdxID=12;fillColor=#dae8fc;shape=stencil(nZBLDoAgDERP0z3SIyjew0SURgSD+Lu9kMZoXLhwN9O+tukAlrNpJg1SzDH4QW/URgNYgZTkjA4UkwJUgGXng+6DX1zLfmoymdXo17xh5zmRJ6Q42BWCfc2oJfdAr+Yv+AP9Cb7OJ3H/2JG1HNGz/84klThPVCc=);strokeColor=#6c8ebf;strokeWidth=3;labelBackgroundColor=none;rounded=0;html=1;whiteSpace=wrap;" parent="1" vertex="1">
          <mxGeometry x="531" y="541" width="156" height="70" as="geometry" />
        </mxCell>
        <mxCell id="13" style="vsdxID=14;fillColor=#dae8fc;shape=stencil(nZBLDoAgDERP0z3SIyjew0SURgSD+Lu9kMZoXLhwN9O+tukAlrNpJg1SzDH4QW/URgNYgZTkjA4UkwJUgGXng+6DX1zLfmoymdXo17xh5zmRJ6Q42BWCfc2oJfdAr+Yv+AP9Cb7OJ3H/2JG1HNGz/84klThPVCc=);strokeColor=#6c8ebf;strokeWidth=3;labelBackgroundColor=none;rounded=0;html=1;whiteSpace=wrap;" parent="1" vertex="1">
          <mxGeometry x="1090" y="535" width="203" height="76" as="geometry" />
        </mxCell>
        <mxCell id="14" value="&lt;font data-darkreader-inline-color=&quot;&quot; style=&quot;font-size: 22px; font-family: &amp;quot;calibri&amp;quot;; color: rgb(0, 0, 0); direction: ltr; letter-spacing: 0px; line-height: 120%; opacity: 1; --darkreader-inline-color: #e8e6e3;&quot;&gt;&lt;font style=&quot;font-size: 28px&quot;&gt;VM2&lt;br&gt;&lt;/font&gt;&lt;/font&gt;" style="verticalAlign=middle;align=center;vsdxID=19;fillColor=none;gradientColor=none;shape=stencil(nZBLDoAgDERP0z3SIyjew0SURgSD+Lu9kMZoXLhwN9O+tukAlrNpJg1SzDH4QW/URgNYgZTkjA4UkwJUgGXng+6DX1zLfmoymdXo17xh5zmRJ6Q42BWCfc2oJfdAr+Yv+AP9Cb7OJ3H/2JG1HNGz/84klThPVCc=);strokeColor=none;labelBackgroundColor=none;rounded=0;html=1;whiteSpace=wrap;" parent="1" vertex="1">
          <mxGeometry x="591" y="940" width="386" height="53" as="geometry" />
        </mxCell>
        <mxCell id="15" value="&lt;font data-darkreader-inline-color=&quot;&quot; style=&quot;font-size: 28px; font-family: Calibri; color: rgb(0, 0, 0); direction: ltr; letter-spacing: 0px; line-height: 120%; opacity: 1; --darkreader-inline-color: #e8e6e3;&quot;&gt;Server&lt;br&gt;&lt;/font&gt;" style="verticalAlign=middle;align=center;vsdxID=20;fillColor=none;gradientColor=none;shape=stencil(nZBLDoAgDERP0z3SIyjew0SURgSD+Lu9kMZoXLhwN9O+tukAlrNpJg1SzDH4QW/URgNYgZTkjA4UkwJUgGXng+6DX1zLfmoymdXo17xh5zmRJ6Q42BWCfc2oJfdAr+Yv+AP9Cb7OJ3H/2JG1HNGz/84klThPVCc=);strokeColor=none;labelBackgroundColor=none;rounded=0;html=1;whiteSpace=wrap;" parent="1" vertex="1">
          <mxGeometry x="1126" y="947" width="125" height="53" as="geometry" />
        </mxCell>
        <mxCell id="17" value="&lt;font data-darkreader-inline-color=&quot;&quot; style=&quot;font-size: 28px; font-family: &amp;quot;calibri&amp;quot;; direction: ltr; letter-spacing: 0px; line-height: 120%; opacity: 1; --darkreader-inline-color: #e8e6e3;&quot; color=&quot;#000000&quot;&gt;VPN&lt;br&gt;&lt;/font&gt;" style="verticalAlign=middle;align=center;vsdxID=23;fillColor=none;gradientColor=none;shape=stencil(nZBLDoAgDERP0z3SIyjew0SURgSD+Lu9kMZoXLhwN9O+tukAlrNpJg1SzDH4QW/URgNYgZTkjA4UkwJUgGXng+6DX1zLfmoymdXo17xh5zmRJ6Q42BWCfc2oJfdAr+Yv+AP9Cb7OJ3H/2JG1HNGz/84klThPVCc=);strokeColor=none;labelBackgroundColor=none;rounded=0;html=1;whiteSpace=wrap;" parent="1" vertex="1">
          <mxGeometry x="555" y="851" width="109" height="65" as="geometry" />
        </mxCell>
        <mxCell id="19" value="&lt;font data-darkreader-inline-color=&quot;&quot; style=&quot;font-size: 28px; font-family: &amp;quot;calibri&amp;quot;; color: rgb(255, 255, 255); direction: ltr; letter-spacing: 0px; line-height: 120%; opacity: 1; --darkreader-inline-color: #e8e6e3;&quot;&gt;VPN&lt;br&gt;&lt;/font&gt;" style="verticalAlign=middle;align=center;vsdxID=25;fillColor=none;shape=stencil(nZBLDoAgDERP0z3SIyjew0SURgSD+Lu9kMZoXLhwN9O+tukAlrNpJg1SzDH4QW/URgNYgZTkjA4UkwJUgGXng+6DX1zLfmoymdXo17xh5zmRJ6Q42BWCfc2oJfdAr+Yv+AP9Cb7OJ3H/2JG1HNGz/84klThPVCc=);strokeColor=none;labelBackgroundColor=none;rounded=0;html=1;whiteSpace=wrap;" parent="1" vertex="1">
          <mxGeometry x="549.5" y="559" width="114" height="37" as="geometry" />
        </mxCell>
        <mxCell id="21" value="&lt;font data-darkreader-inline-color=&quot;&quot; style=&quot;font-size: 28px; font-family: &amp;quot;calibri&amp;quot;; color: rgb(0, 0, 0); direction: ltr; letter-spacing: 0px; line-height: 120%; opacity: 1; --darkreader-inline-color: #e8e6e3;&quot;&gt;VM1&lt;br&gt;&lt;/font&gt;" style="verticalAlign=middle;align=center;vsdxID=27;fillColor=none;gradientColor=none;shape=stencil(nZBLDoAgDERP0z3SIyjew0SURgSD+Lu9kMZoXLhwN9O+tukAlrNpJg1SzDH4QW/URgNYgZTkjA4UkwJUgGXng+6DX1zLfmoymdXo17xh5zmRJ6Q42BWCfc2oJfdAr+Yv+AP9Cb7OJ3H/2JG1HNGz/84klThPVCc=);strokeColor=none;labelBackgroundColor=none;rounded=0;html=1;whiteSpace=wrap;" parent="1" vertex="1">
          <mxGeometry x="741" y="634" width="109" height="53" as="geometry" />
        </mxCell>
        <mxCell id="22" value="&lt;font data-darkreader-inline-color=&quot;&quot; style=&quot;font-size: 28px; font-family: &amp;quot;calibri&amp;quot;; color: rgb(0, 0, 0); direction: ltr; letter-spacing: 0px; line-height: 120%; opacity: 1; --darkreader-inline-color: #e8e6e3;&quot;&gt;Laptop 2&lt;br&gt;&lt;/font&gt;" style="verticalAlign=middle;align=center;vsdxID=28;fillColor=none;gradientColor=none;shape=stencil(nZBLDoAgDERP0z3SIyjew0SURgSD+Lu9kMZoXLhwN9O+tukAlrNpJg1SzDH4QW/URgNYgZTkjA4UkwJUgGXng+6DX1zLfmoymdXo17xh5zmRJ6Q42BWCfc2oJfdAr+Yv+AP9Cb7OJ3H/2JG1HNGz/84klThPVCc=);strokeColor=none;labelBackgroundColor=none;rounded=0;html=1;whiteSpace=wrap;" parent="1" vertex="1">
          <mxGeometry x="1122" y="670" width="135" height="53" as="geometry" />
        </mxCell>
        <mxCell id="24" value="&lt;font data-darkreader-inline-color=&quot;&quot; style=&quot;font-size: 28px; font-family: &amp;quot;calibri&amp;quot;; direction: ltr; letter-spacing: 0px; line-height: 120%; opacity: 1; --darkreader-inline-color: #e8e6e3;&quot; color=&quot;#000000&quot;&gt;Controller&lt;br&gt;&lt;/font&gt;" style="verticalAlign=middle;align=center;vsdxID=32;fillColor=none;gradientColor=none;shape=stencil(nZBLDoAgDERP0z3SIyjew0SURgSD+Lu9kMZoXLhwN9O+tukAlrNpJg1SzDH4QW/URgNYgZTkjA4UkwJUgGXng+6DX1zLfmoymdXo17xh5zmRJ6Q42BWCfc2oJfdAr+Yv+AP9Cb7OJ3H/2JG1HNGz/84klThPVCc=);strokeColor=none;labelBackgroundColor=none;rounded=0;html=1;whiteSpace=wrap;" parent="1" vertex="1">
          <mxGeometry x="1126" y="546.5" width="131" height="53" as="geometry" />
        </mxCell>
        <mxCell id="26" style="vsdxID=48;edgeStyle=none;startArrow=none;endArrow=none;startSize=5;endSize=5;strokeWidth=3;strokeColor=#000000;spacingTop=0;spacingBottom=0;spacingLeft=0;spacingRight=0;verticalAlign=middle;html=1;labelBackgroundColor=#ffffff;rounded=0;entryX=0.995;entryY=0.269;entryDx=0;entryDy=0;entryPerimeter=0;" parent="1" source="13" target="6" edge="1">
          <mxGeometry relative="1" as="geometry">
            <mxPoint x="900" y="576" as="targetPoint" />
          </mxGeometry>
        </mxCell>
        <mxCell id="28" style="vsdxID=36;edgeStyle=none;startArrow=none;endArrow=none;startSize=5;endSize=5;strokeWidth=3;strokeColor=#000000;spacingTop=0;spacingBottom=0;spacingLeft=0;spacingRight=0;verticalAlign=middle;html=1;labelBackgroundColor=#ffffff;rounded=0;endFill=0;" parent="1" source="11" target="8" edge="1">
          <mxGeometry relative="1" as="geometry">
            <mxPoint x="380" y="550" as="sourcePoint" />
          </mxGeometry>
        </mxCell>
        <mxCell id="eZtIASL5zvcn_9goES__-30" value="" style="rounded=1;whiteSpace=wrap;html=1;hachureGap=4;pointerEvents=0;strokeWidth=2;" vertex="1" parent="1">
          <mxGeometry x="470" y="220" width="830" height="251" as="geometry" />
        </mxCell>
        <mxCell id="25" style="vsdxID=49;edgeStyle=none;startArrow=none;endArrow=none;startSize=5;endSize=5;strokeWidth=3;strokeColor=#000000;spacingTop=0;spacingBottom=0;spacingLeft=0;spacingRight=0;verticalAlign=middle;html=1;labelBackgroundColor=#ffffff;rounded=0;" parent="1" source="b6oYJSDJwjR9OZKanJwb-40" target="11" edge="1">
          <mxGeometry relative="1" as="geometry">
            <mxPoint x="12" as="offset" />
            <Array as="points" />
            <mxPoint x="627.191142191142" y="396" as="sourcePoint" />
          </mxGeometry>
        </mxCell>
        <mxCell id="b6oYJSDJwjR9OZKanJwb-40" style="vsdxID=4;fillColor=#dae8fc;shape=stencil(nZBLDoAgDERP0z3SIyjew0SURgSD+Lu9kMZoXLhwN9O+tukAlrNpJg1SzDH4QW/URgNYgZTkjA4UkwJUgGXng+6DX1zLfmoymdXo17xh5zmRJ6Q42BWCfc2oJfdAr+Yv+AP9Cb7OJ3H/2JG1HNGz/84klThPVCc=);strokeColor=#6c8ebf;strokeWidth=3;labelBackgroundColor=none;rounded=0;html=1;whiteSpace=wrap;" parent="1" vertex="1">
          <mxGeometry x="523.5" y="240" width="172" height="76" as="geometry" />
        </mxCell>
        <mxCell id="b6oYJSDJwjR9OZKanJwb-41" value="&lt;font data-darkreader-inline-color=&quot;&quot; style=&quot;font-size: 28px; font-family: &amp;quot;calibri&amp;quot;; direction: ltr; letter-spacing: 0px; line-height: 120%; opacity: 1; --darkreader-inline-color: #e8e6e3;&quot; color=&quot;#000000&quot;&gt;VPN&lt;br&gt;&lt;/font&gt;" style="verticalAlign=middle;align=center;vsdxID=29;fillColor=none;gradientColor=none;shape=stencil(nZBLDoAgDERP0z3SIyjew0SURgSD+Lu9kMZoXLhwN9O+tukAlrNpJg1SzDH4QW/URgNYgZTkjA4UkwJUgGXng+6DX1zLfmoymdXo17xh5zmRJ6Q42BWCfc2oJfdAr+Yv+AP9Cb7OJ3H/2JG1HNGz/84klThPVCc=);strokeColor=none;labelBackgroundColor=none;rounded=0;html=1;whiteSpace=wrap;" parent="1" vertex="1">
          <mxGeometry x="557.5" y="251.5" width="109" height="53" as="geometry" />
        </mxCell>
        <mxCell id="eZtIASL5zvcn_9goES__-32" value="&lt;font data-darkreader-inline-color=&quot;&quot; style=&quot;font-size: 28px; font-family: &amp;quot;calibri&amp;quot;; color: rgb(0, 0, 0); direction: ltr; letter-spacing: 0px; line-height: 120%; opacity: 1; --darkreader-inline-color: #e8e6e3;&quot;&gt;Laptop 1&lt;br&gt;&lt;/font&gt;" style="verticalAlign=middle;align=center;vsdxID=28;fillColor=none;gradientColor=none;shape=stencil(nZBLDoAgDERP0z3SIyjew0SURgSD+Lu9kMZoXLhwN9O+tukAlrNpJg1SzDH4QW/URgNYgZTkjA4UkwJUgGXng+6DX1zLfmoymdXo17xh5zmRJ6Q42BWCfc2oJfdAr+Yv+AP9Cb7OJ3H/2JG1HNGz/84klThPVCc=);strokeColor=none;labelBackgroundColor=none;rounded=0;html=1;whiteSpace=wrap;" vertex="1" parent="1">
          <mxGeometry x="1122" y="380" width="135" height="53" as="geometry" />
        </mxCell>
        <mxCell id="eZtIASL5zvcn_9goES__-33" style="vsdxID=12;fillColor=#dae8fc;shape=stencil(nZBLDoAgDERP0z3SIyjew0SURgSD+Lu9kMZoXLhwN9O+tukAlrNpJg1SzDH4QW/URgNYgZTkjA4UkwJUgGXng+6DX1zLfmoymdXo17xh5zmRJ6Q42BWCfc2oJfdAr+Yv+AP9Cb7OJ3H/2JG1HNGz/84klThPVCc=);strokeColor=#6c8ebf;strokeWidth=3;labelBackgroundColor=none;rounded=0;html=1;whiteSpace=wrap;" vertex="1" parent="1">
          <mxGeometry x="780" y="851" width="260" height="70" as="geometry" />
        </mxCell>
        <mxCell id="eZtIASL5zvcn_9goES__-34" value="&lt;font data-darkreader-inline-color=&quot;&quot; style=&quot;font-size: 28px; font-family: &amp;quot;calibri&amp;quot;; color: rgb(255, 255, 255); direction: ltr; letter-spacing: 0px; line-height: 120%; opacity: 1; --darkreader-inline-color: #e8e6e3;&quot;&gt;Mumble-Server&lt;br&gt;&lt;/font&gt;" style="verticalAlign=middle;align=center;vsdxID=25;fillColor=none;shape=stencil(nZBLDoAgDERP0z3SIyjew0SURgSD+Lu9kMZoXLhwN9O+tukAlrNpJg1SzDH4QW/URgNYgZTkjA4UkwJUgGXng+6DX1zLfmoymdXo17xh5zmRJ6Q42BWCfc2oJfdAr+Yv+AP9Cb7OJ3H/2JG1HNGz/84klThPVCc=);strokeColor=none;labelBackgroundColor=none;rounded=0;html=1;whiteSpace=wrap;" vertex="1" parent="1">
          <mxGeometry x="795.5" y="867.5" width="234.5" height="37" as="geometry" />
        </mxCell>
        <mxCell id="eZtIASL5zvcn_9goES__-36" style="vsdxID=14;fillColor=#dae8fc;shape=stencil(nZBLDoAgDERP0z3SIyjew0SURgSD+Lu9kMZoXLhwN9O+tukAlrNpJg1SzDH4QW/URgNYgZTkjA4UkwJUgGXng+6DX1zLfmoymdXo17xh5zmRJ6Q42BWCfc2oJfdAr+Yv+AP9Cb7OJ3H/2JG1HNGz/84klThPVCc=);strokeColor=#6c8ebf;strokeWidth=3;labelBackgroundColor=none;rounded=0;html=1;whiteSpace=wrap;" vertex="1" parent="1">
          <mxGeometry x="1090" y="828" width="203" height="76" as="geometry" />
        </mxCell>
        <mxCell id="eZtIASL5zvcn_9goES__-37" value="&lt;font data-darkreader-inline-color=&quot;&quot; style=&quot;font-size: 28px; font-family: &amp;quot;calibri&amp;quot;; direction: ltr; letter-spacing: 0px; line-height: 120%; opacity: 1; --darkreader-inline-color: #e8e6e3;&quot; color=&quot;#000000&quot;&gt;Controller&lt;br&gt;&lt;/font&gt;" style="verticalAlign=middle;align=center;vsdxID=32;fillColor=none;gradientColor=none;shape=stencil(nZBLDoAgDERP0z3SIyjew0SURgSD+Lu9kMZoXLhwN9O+tukAlrNpJg1SzDH4QW/URgNYgZTkjA4UkwJUgGXng+6DX1zLfmoymdXo17xh5zmRJ6Q42BWCfc2oJfdAr+Yv+AP9Cb7OJ3H/2JG1HNGz/84klThPVCc=);strokeColor=none;labelBackgroundColor=none;rounded=0;html=1;whiteSpace=wrap;" vertex="1" parent="1">
          <mxGeometry x="1127" y="839.5" width="131" height="53" as="geometry" />
        </mxCell>
        <mxCell id="eZtIASL5zvcn_9goES__-38" style="vsdxID=48;edgeStyle=none;startArrow=none;endArrow=none;startSize=5;endSize=5;strokeWidth=3;strokeColor=#000000;spacingTop=0;spacingBottom=0;spacingLeft=0;spacingRight=0;verticalAlign=middle;html=1;labelBackgroundColor=#ffffff;rounded=0;entryX=0.995;entryY=0.269;entryDx=0;entryDy=0;entryPerimeter=0;" edge="1" parent="1">
          <mxGeometry relative="1" as="geometry">
            <mxPoint x="1090" y="860" as="sourcePoint" />
            <mxPoint x="1061" y="860" as="targetPoint" />
          </mxGeometry>
        </mxCell>
        <mxCell id="eZtIASL5zvcn_9goES__-39" style="vsdxID=12;fillColor=#dae8fc;shape=stencil(nZBLDoAgDERP0z3SIyjew0SURgSD+Lu9kMZoXLhwN9O+tukAlrNpJg1SzDH4QW/URgNYgZTkjA4UkwJUgGXng+6DX1zLfmoymdXo17xh5zmRJ6Q42BWCfc2oJfdAr+Yv+AP9Cb7OJ3H/2JG1HNGz/84klThPVCc=);strokeColor=#6c8ebf;strokeWidth=3;labelBackgroundColor=none;rounded=0;html=1;whiteSpace=wrap;" vertex="1" parent="1">
          <mxGeometry x="770" y="541" width="260" height="70" as="geometry" />
        </mxCell>
        <mxCell id="eZtIASL5zvcn_9goES__-40" value="&lt;font data-darkreader-inline-color=&quot;&quot; style=&quot;font-size: 28px; font-family: &amp;quot;calibri&amp;quot;; color: rgb(255, 255, 255); direction: ltr; letter-spacing: 0px; line-height: 120%; opacity: 1; --darkreader-inline-color: #e8e6e3;&quot;&gt;Mumble Client&lt;br&gt;&lt;/font&gt;" style="verticalAlign=middle;align=center;vsdxID=25;fillColor=none;shape=stencil(nZBLDoAgDERP0z3SIyjew0SURgSD+Lu9kMZoXLhwN9O+tukAlrNpJg1SzDH4QW/URgNYgZTkjA4UkwJUgGXng+6DX1zLfmoymdXo17xh5zmRJ6Q42BWCfc2oJfdAr+Yv+AP9Cb7OJ3H/2JG1HNGz/84klThPVCc=);strokeColor=none;labelBackgroundColor=none;rounded=0;html=1;whiteSpace=wrap;" vertex="1" parent="1">
          <mxGeometry x="782.75" y="562.5" width="234.5" height="37" as="geometry" />
        </mxCell>
        <mxCell id="eZtIASL5zvcn_9goES__-41" value="" style="curved=1;endArrow=none;html=1;rounded=0;strokeWidth=3;exitX=-0.003;exitY=0.5;exitDx=0;exitDy=0;exitPerimeter=0;entryX=0;entryY=0.5;entryDx=0;entryDy=0;entryPerimeter=0;endFill=0;" edge="1" parent="1" source="b6oYJSDJwjR9OZKanJwb-40" target="8">
          <mxGeometry width="50" height="50" relative="1" as="geometry">
            <mxPoint x="290" y="380" as="sourcePoint" />
            <mxPoint x="340" y="330" as="targetPoint" />
            <Array as="points">
              <mxPoint x="370" y="330" />
              <mxPoint x="260" y="530" />
              <mxPoint x="330" y="780" />
            </Array>
          </mxGeometry>
        </mxCell>
        <mxCell id="eZtIASL5zvcn_9goES__-42" style="vsdxID=12;fillColor=#dae8fc;shape=stencil(nZBLDoAgDERP0z3SIyjew0SURgSD+Lu9kMZoXLhwN9O+tukAlrNpJg1SzDH4QW/URgNYgZTkjA4UkwJUgGXng+6DX1zLfmoymdXo17xh5zmRJ6Q42BWCfc2oJfdAr+Yv+AP9Cb7OJ3H/2JG1HNGz/84klThPVCc=);strokeColor=#6c8ebf;strokeWidth=3;labelBackgroundColor=none;rounded=0;html=1;whiteSpace=wrap;" vertex="1" parent="1">
          <mxGeometry x="770" y="304.5" width="260" height="70" as="geometry" />
        </mxCell>
        <mxCell id="eZtIASL5zvcn_9goES__-43" value="&lt;font data-darkreader-inline-color=&quot;&quot; style=&quot;font-size: 28px; font-family: &amp;quot;calibri&amp;quot;; color: rgb(255, 255, 255); direction: ltr; letter-spacing: 0px; line-height: 120%; opacity: 1; --darkreader-inline-color: #e8e6e3;&quot;&gt;Mumble Client&lt;br&gt;&lt;/font&gt;" style="verticalAlign=middle;align=center;vsdxID=25;fillColor=none;shape=stencil(nZBLDoAgDERP0z3SIyjew0SURgSD+Lu9kMZoXLhwN9O+tukAlrNpJg1SzDH4QW/URgNYgZTkjA4UkwJUgGXng+6DX1zLfmoymdXo17xh5zmRJ6Q42BWCfc2oJfdAr+Yv+AP9Cb7OJ3H/2JG1HNGz/84klThPVCc=);strokeColor=none;labelBackgroundColor=none;rounded=0;html=1;whiteSpace=wrap;" vertex="1" parent="1">
          <mxGeometry x="782.75" y="326" width="234.5" height="37" as="geometry" />
        </mxCell>
      </root>
    </mxGraphModel>
  </diagram>
</mxfile>
